<?xml version="1.0" standalone="no"?>
<!DOCTYPE svg PUBLIC "-//W3C//DTD SVG 20010904//EN"
 "http://www.w3.org/TR/2001/REC-SVG-20010904/DTD/svg10.dtd">
<svg version="1.0" xmlns="http://www.w3.org/2000/svg"
 width="512.000000pt" height="512.000000pt" viewBox="0 0 512.000000 512.000000"
 preserveAspectRatio="xMidYMid meet">
<metadata>
Created by potrace 1.14, written by Peter Selinger 2001-2017
</metadata>
<g transform="translate(0.000000,512.000000) scale(0.100000,-0.100000)"
fill="#000000" stroke="none">
<path d="M0 2560 l0 -2560 2560 0 2560 0 0 2560 0 2560 -2560 0 -2560 0 0
-2560z m2358 848 c231 -71 496 -290 681 -560 17 -27 34 -48 35 -48 2 0 21 48
42 106 43 123 50 120 60 -25 12 -160 -33 -335 -122 -478 -88 -142 -282 -316
-445 -398 -361 -183 -720 -86 -1094 295 -55 57 -93 99 -85 94 8 -5 47 -30 86
-56 240 -159 570 -206 721 -103 48 32 79 77 112 165 53 138 66 218 65 400 0
136 -4 179 -22 245 -30 110 -100 247 -168 329 l-57 69 62 -7 c35 -4 93 -16
129 -28z m1232 -1223 c101 -102 113 -117 97 -126 -216 -124 -499 -403 -624
-616 l-26 -45 -120 120 -120 120 65 98 c88 135 195 260 297 350 85 75 284 214
305 214 6 0 63 -52 126 -115z m466 -407 c146 -86 327 -149 479 -165 81 -9 73
4 100 -178 53 -358 161 -703 341 -1089 46 -99 82 -181 81 -182 -2 -2 -211 205
-466 460 l-463 463 11 39 c23 83 7 156 -46 215 -51 56 -104 81 -172 81 -126 0
-221 -83 -238 -207 -12 -92 46 -197 131 -236 46 -21 139 -25 182 -9 27 11 39
0 491 -452 254 -254 461 -464 459 -465 -2 -2 -72 29 -157 68 -424 196 -718
287 -1139 353 l-144 22 -13 90 c-31 221 -139 459 -292 642 l-52 63 31 55 c120
208 347 437 573 576 l58 36 84 -66 c45 -37 118 -88 161 -114z"/>
</g>
</svg>
